<svg width="44" height="44" viewBox="0 0 44 44" fill="none" xmlns="http://www.w3.org/2000/svg">
<path d="M22.0029 15.3339C18.3139 15.3339 15.3383 18.3102 15.3383 22C15.3383 25.6898 18.3139 28.6661 22.0029 28.6661C25.6919 28.6661 28.6675 25.6898 28.6675 22C28.6675 18.3102 25.6919 15.3339 22.0029 15.3339ZM22.0029 26.3338C19.619 26.3338 17.67 24.3903 17.67 22C17.67 19.6097 19.6132 17.6662 22.0029 17.6662C24.3926 17.6662 26.3358 19.6097 26.3358 22C26.3358 24.3903 24.3868 26.3338 22.0029 26.3338ZM30.4946 15.0613C30.4946 15.9257 29.7986 16.6161 28.9401 16.6161C28.0759 16.6161 27.3856 15.9199 27.3856 15.0613C27.3856 14.2026 28.0817 13.5064 28.9401 13.5064C29.7986 13.5064 30.4946 14.2026 30.4946 15.0613ZM34.9086 16.6393C34.81 14.5565 34.3344 12.7116 32.8089 11.1916C31.2892 9.67154 29.4447 9.19581 27.3624 9.09138C25.2163 8.96954 18.7837 8.96954 16.6376 9.09138C14.5611 9.19 12.7166 9.66574 11.1911 11.1858C9.66559 12.7058 9.19576 14.5507 9.09136 16.6335C8.96955 18.7801 8.96955 25.2141 9.09136 27.3607C9.18996 29.4435 9.66559 31.2884 11.1911 32.8084C12.7166 34.3285 14.5553 34.8042 16.6376 34.9086C18.7837 35.0305 25.2163 35.0305 27.3624 34.9086C29.4447 34.81 31.2892 34.3343 32.8089 32.8084C34.3286 31.2884 34.8042 29.4435 34.9086 27.3607C35.0305 25.2141 35.0305 18.7859 34.9086 16.6393ZM32.1361 29.664C31.6837 30.8011 30.8078 31.6771 29.6651 32.1354C27.954 32.8142 23.8938 32.6576 22.0029 32.6576C20.112 32.6576 16.046 32.8084 14.3407 32.1354C13.2038 31.6829 12.3279 30.8069 11.8697 29.664C11.1911 27.9525 11.3477 23.8913 11.3477 22C11.3477 20.1087 11.1969 16.0417 11.8697 14.336C12.3221 13.1989 13.198 12.3229 14.3407 11.8646C16.0518 11.1858 20.112 11.3424 22.0029 11.3424C23.8938 11.3424 27.9598 11.1916 29.6651 11.8646C30.802 12.3171 31.6779 13.1931 32.1361 14.336C32.8147 16.0475 32.6581 20.1087 32.6581 22C32.6581 23.8913 32.8147 27.9583 32.1361 29.664Z" fill="white"/>
</svg>
