<svg width="44" height="44" viewBox="0 0 44 44" fill="none" xmlns="http://www.w3.org/2000/svg">
<path d="M32.6733 16.4828C32.6907 16.7234 32.6907 16.9641 32.6907 17.2047C32.6907 24.5437 27.0198 33 16.6549 33C13.4616 33 10.4953 32.089 8 30.5078C8.4537 30.5594 8.88989 30.5766 9.36104 30.5766C11.9958 30.5766 14.4213 29.7 16.3582 28.2047C13.8804 28.1531 11.8039 26.5547 11.0885 24.3547C11.4375 24.4062 11.7865 24.4406 12.1529 24.4406C12.659 24.4406 13.165 24.3718 13.6361 24.2516C11.0536 23.7359 9.11671 21.5016 9.11671 18.8031V18.7344C9.867 19.1469 10.7395 19.4047 11.6643 19.439C10.1462 18.4421 9.15162 16.7406 9.15162 14.8156C9.15162 13.7844 9.43076 12.839 9.91937 12.014C12.6938 15.3828 16.8642 17.5827 21.5406 17.8234C21.4534 17.4109 21.401 16.9813 21.401 16.5516C21.401 13.4922 23.9137 11 27.0371 11C28.6599 11 30.1256 11.6703 31.1551 12.7531C32.4289 12.5125 33.6504 12.0484 34.7323 11.4125C34.3134 12.7016 33.4235 13.7844 32.2545 14.4719C33.3887 14.3516 34.488 14.0422 35.5 13.6125C34.7324 14.7125 33.7726 15.6921 32.6733 16.4828Z" fill="white"/>
</svg>
