<svg width="44" height="44" viewBox="0 0 44 44" fill="none" xmlns="http://www.w3.org/2000/svg">
<path d="M34.4567 15.8164C34.1577 14.7078 33.2767 13.8347 32.158 13.5384C30.1304 13 22 13 22 13C22 13 13.8696 13 11.842 13.5384C10.7233 13.8347 9.84232 14.7078 9.5433 15.8164C9 17.8258 9 22.0182 9 22.0182C9 22.0182 9 26.2106 9.5433 28.22C9.84232 29.3286 10.7233 30.1653 11.842 30.4616C13.8696 31 22 31 22 31C22 31 30.1304 31 32.158 30.4616C33.2767 30.1653 34.1577 29.3286 34.4567 28.22C35 26.2106 35 22.0182 35 22.0182C35 22.0182 35 17.8258 34.4567 15.8164ZM19.3409 25.8246V18.2118L26.1363 22.0183L19.3409 25.8246Z" fill="white"/>
</svg>
