<svg width="481" height="181" viewBox="0 0 481 181" fill="none" xmlns="http://www.w3.org/2000/svg">
<path d="M118.22 158.629L154.245 177.949H47.6941L83.7184 158.629V124.056H0L63.423 2.54213H115.684L14.7141 115.921H83.211V79.3146L118.22 71.1798V115.921H154.752L152.215 124.565H118.22V158.629Z" fill="black"/>
<path d="M320.159 68.6376C320.159 128.632 290.224 181 236.441 181C198.387 181 177.584 151.511 177.584 112.362C177.584 52.8764 207.013 0 261.303 0C299.357 0 320.159 29.9972 320.159 68.6376ZM257.751 7.6264C224.264 7.6264 214.116 77.7893 214.116 121.514C214.116 152.02 223.756 172.865 239.485 172.865C279.061 172.865 283.12 89.9916 283.12 59.9944C283.12 30.5056 273.48 7.6264 257.751 7.6264Z" fill="black"/>
<path d="M444.975 158.629L481 177.949H374.449L410.473 158.629V124.056H326.755L390.178 2.54213H442.438L341.469 115.921H409.966V79.3146L444.975 71.1798V115.921H481.507L478.97 124.565H444.975V158.629Z" fill="black"/>
</svg>
