<svg width="182" height="34" viewBox="0 0 182 34" fill="none" xmlns="http://www.w3.org/2000/svg">
<g clip-path="url(#clip0)">
<path d="M23.3425 20.8884C23.3425 28.7554 17.6187 34.0001 10.285 34.0001C3.66683 34.0001 0 29.3884 0 23.4203C0 15.6437 5.6344 10.399 13.0575 10.399C19.6757 10.399 23.3425 14.9203 23.3425 20.8884ZM16.9926 19.9841C16.9926 15.4628 15.7405 11.7554 13.0575 11.7554C8.76462 11.7554 6.34988 18.266 6.34988 24.4149C6.34988 28.9362 7.60197 32.6437 10.3744 32.6437C14.6673 32.6437 16.9926 25.6809 16.9926 19.9841Z" fill="white"/>
<path d="M38.5465 7.23407L37.7415 10.8511H45.3435L44.9858 12.3883H37.4732L33.717 30.2926L38.0098 33.5479H23.0742L27.8143 30.2926L31.5705 12.3883H26.8305L27.1882 10.8511H31.8388L32.3754 8.13833C33.5381 2.71279 37.2944 0.0904541 42.3922 0.0904541C45.4329 0.0904541 48.742 0.99471 51.0673 2.80322L46.5062 6.9628L42.3922 1.17556C40.6929 1.17556 39.3514 3.4362 38.5465 7.23407Z" fill="white"/>
<path d="M57.2383 7.23407L56.4334 10.8511H64.0354L63.6777 12.3883H56.1651L52.4089 30.2926L56.7017 33.5479H41.7661L46.5062 30.2926L50.2624 12.3883H45.5224L45.8801 10.8511H50.5307L51.0673 8.13833C52.23 2.71279 55.9863 0.0904541 61.0841 0.0904541C64.1248 0.0904541 67.4339 0.99471 69.7592 2.80322L65.2875 6.87237L61.1735 1.08514C59.3848 1.17556 58.0433 3.4362 57.2383 7.23407Z" fill="white"/>
<path d="M78.345 17.4522L73.0683 11.4841C71.1007 11.5745 69.1332 13.1117 69.1332 15.1915C69.1332 17.9043 71.6374 18.8086 74.4993 19.6224C78.0767 20.6171 82.3695 21.7926 82.3695 26.6756C82.3695 31.7394 77.8084 34.0905 72.9789 34.0905C69.9381 34.0905 66.5396 33.1862 63.7671 31.1969L68.06 26.4043L72.8894 33.0958C75.3936 33.0958 77.3612 31.649 77.3612 29.4788C77.3612 26.6756 74.6781 26.0426 71.4585 24.9575C68.1494 23.782 64.0354 22.3352 64.0354 17.5426C64.0354 12.75 68.3283 10.5798 72.9789 10.5798C76.1091 10.5798 79.1499 11.5745 81.6541 13.1117L78.345 17.4522Z" fill="white"/>
<path d="M103.655 30.2022V19.8032C103.655 16.5479 101.688 15.1011 99.2728 15.1011C97.7524 15.1011 96.232 15.7341 95.0694 16.9096V30.2022L99.0939 33.4575H85.1421L89.1666 30.2022V6.42024L84.6055 3.61705L95.0694 0.271301V15.3724C96.7686 12.2979 99.4517 10.399 102.671 10.399C106.338 10.399 109.647 12.9309 109.647 18.266V30.2022L113.672 33.4575H99.72L103.655 30.2022Z" fill="white"/>
<path d="M138.624 22.1543C138.624 29.2979 133.705 34.0001 126.908 34.0001C119.753 34.0001 115.46 28.8458 115.46 22.1543C115.46 15.0107 120.379 10.399 127.176 10.399C134.331 10.399 138.624 15.5532 138.624 22.1543ZM132.095 23.0586C132.095 16.7288 130.307 11.7554 126.64 11.7554C123.42 11.7554 121.9 15.6437 121.9 21.3405C121.9 27.6703 123.688 32.6437 127.266 32.6437C130.575 32.6437 132.095 28.7554 132.095 23.0586Z" fill="white"/>
<path d="M158.389 17.5426C157.316 16.3671 155.885 15.7341 154.454 15.7341C153.023 15.7341 151.682 16.5479 151.145 17.9947V30.2022L155.617 33.4575H141.307L145.332 30.2022V16.4575L140.771 13.6543L150.966 10.399V16.5479C152.039 12.5692 154.096 10.4894 156.779 10.4894C157.763 10.4894 158.926 10.6703 159.999 11.2128L158.389 17.5426Z" fill="white"/>
<path d="M182 25.0479C181.195 30.0213 177.886 34.0001 172.431 34.0001C165.991 34.0001 161.609 28.9362 161.609 22.516C161.609 16.3671 165.455 10.399 172.609 10.399C178.244 10.399 181.911 14.2873 181.911 20.1649H166.438C166.438 24.5054 168.853 28.7554 174.577 28.7554C177.26 28.7554 179.406 27.7607 182 25.0479ZM166.528 18.7181H175.65C175.65 18.3564 175.74 18.0852 175.74 17.3618C175.74 13.8352 174.756 11.6649 172.073 11.6649C169.032 11.6649 166.975 15.0107 166.528 18.7181Z" fill="white"/>
</g>
<defs>
<clipPath id="clip0">
<rect width="182" height="34" fill="white"/>
</clipPath>
</defs>
</svg>
