<svg width="182" height="34" viewBox="0 0 182 34" fill="none" xmlns="http://www.w3.org/2000/svg">
<g clip-path="url(#clip0)">
<path d="M23.3425 20.8883C23.3425 28.7553 17.6187 34 10.285 34C3.66683 34 0 29.3883 0 23.4202C0 15.6436 5.6344 10.3989 13.0575 10.3989C19.6757 10.3989 23.3425 14.9202 23.3425 20.8883ZM16.9926 19.984C16.9926 15.4628 15.7405 11.7553 13.0575 11.7553C8.76462 11.7553 6.34988 18.2659 6.34988 24.4149C6.34988 28.9362 7.60197 32.6436 10.3744 32.6436C14.6673 32.6436 16.9926 25.6808 16.9926 19.984Z" fill="black"/>
<path d="M38.5465 7.23404L37.7415 10.8511H45.3435L44.9858 12.3883H37.4732L33.717 30.2926L38.0098 33.5479H23.0742L27.8143 30.2926L31.5705 12.3883H26.8305L27.1882 10.8511H31.8388L32.3754 8.1383C33.5381 2.71276 37.2944 0.0904236 42.3922 0.0904236C45.4329 0.0904236 48.742 0.994679 51.0673 2.80319L46.5062 6.96277L42.3922 1.17553C40.6929 1.17553 39.3514 3.43617 38.5465 7.23404Z" fill="black"/>
<path d="M57.2383 7.23404L56.4334 10.8511H64.0354L63.6777 12.3883H56.1651L52.4089 30.2926L56.7017 33.5479H41.7661L46.5062 30.2926L50.2624 12.3883H45.5224L45.8801 10.8511H50.5307L51.0673 8.1383C52.23 2.71276 55.9863 0.0904236 61.0841 0.0904236C64.1248 0.0904236 67.4339 0.994679 69.7592 2.80319L65.2875 6.87234L61.1735 1.0851C59.3848 1.17553 58.0433 3.43617 57.2383 7.23404Z" fill="black"/>
<path d="M78.345 17.4521L73.0683 11.4841C71.1007 11.5745 69.1332 13.1117 69.1332 15.1915C69.1332 17.9043 71.6374 18.8085 74.4993 19.6224C78.0767 20.617 82.3695 21.7926 82.3695 26.6755C82.3695 31.7394 77.8084 34.0904 72.9789 34.0904C69.9381 34.0904 66.5396 33.1862 63.7671 31.1968L68.06 26.4043L72.8894 33.0958C75.3936 33.0958 77.3612 31.6489 77.3612 29.4787C77.3612 26.6755 74.6781 26.0426 71.4585 24.9575C68.1494 23.7819 64.0354 22.3351 64.0354 17.5426C64.0354 12.75 68.3283 10.5798 72.9789 10.5798C76.1091 10.5798 79.1499 11.5745 81.6541 13.1117L78.345 17.4521Z" fill="black"/>
<path d="M103.655 30.2021V19.8032C103.655 16.5479 101.688 15.1011 99.2728 15.1011C97.7524 15.1011 96.232 15.734 95.0694 16.9096V30.2021L99.0939 33.4574H85.1421L89.1666 30.2021V6.42021L84.6055 3.61702L95.0694 0.271271V15.3723C96.7686 12.2979 99.4517 10.3989 102.671 10.3989C106.338 10.3989 109.647 12.9308 109.647 18.266V30.2021L113.672 33.4574H99.72L103.655 30.2021Z" fill="black"/>
<path d="M138.624 22.1542C138.624 29.2979 133.705 34 126.908 34C119.753 34 115.46 28.8457 115.46 22.1542C115.46 15.0106 120.379 10.3989 127.176 10.3989C134.331 10.3989 138.624 15.5532 138.624 22.1542ZM132.095 23.0585C132.095 16.7287 130.307 11.7553 126.64 11.7553C123.42 11.7553 121.9 15.6436 121.9 21.3404C121.9 27.6702 123.688 32.6436 127.266 32.6436C130.575 32.6436 132.095 28.7553 132.095 23.0585Z" fill="black"/>
<path d="M158.389 17.5425C157.316 16.367 155.885 15.734 154.454 15.734C153.023 15.734 151.682 16.5479 151.145 17.9947V30.2021L155.617 33.4574H141.307L145.332 30.2021V16.4574L140.771 13.6542L150.966 10.3989V16.5479C152.039 12.5691 154.096 10.4894 156.779 10.4894C157.763 10.4894 158.926 10.6702 159.999 11.2128L158.389 17.5425Z" fill="black"/>
<path d="M182 25.0479C181.195 30.0213 177.886 34 172.431 34C165.991 34 161.609 28.9362 161.609 22.5159C161.609 16.367 165.455 10.3989 172.609 10.3989C178.244 10.3989 181.911 14.2872 181.911 20.1649H166.438C166.438 24.5053 168.853 28.7553 174.577 28.7553C177.26 28.7553 179.406 27.7606 182 25.0479ZM166.528 18.7181H175.65C175.65 18.3564 175.74 18.0851 175.74 17.3617C175.74 13.8351 174.756 11.6649 172.073 11.6649C169.032 11.6649 166.975 15.0106 166.528 18.7181Z" fill="black"/>
</g>
<defs>
<clipPath id="clip0">
<rect width="182" height="34" fill="white"/>
</clipPath>
</defs>
</svg>
